<svg width="94" height="44" viewBox="0 0 94 44" fill="none" xmlns="http://www.w3.org/2000/svg">
<circle cx="22.3329" cy="22" r="22" fill="#F4DE4D"/>
<path d="M34.7329 29.315C38.5339 29.315 40.8019 26.9 41.4739 24.38L39.1639 23.624C38.6599 25.304 37.2319 26.9 34.7329 26.9C32.1919 26.9 29.7979 25.052 29.7979 21.566C29.7979 17.954 32.2549 16.169 34.7119 16.169C37.2109 16.169 38.5969 17.618 39.0379 19.424L41.4109 18.626C40.7389 16.022 38.4919 13.796 34.7119 13.796C30.8479 13.796 27.2149 16.715 27.2149 21.566C27.2149 26.417 30.7219 29.315 34.7329 29.315Z" fill="black"/>
<path d="M46.2779 26.228C46.2779 27.845 47.6009 29.315 49.7429 29.315C51.4019 29.315 52.4099 28.475 52.8929 27.698C52.8929 28.517 52.9769 28.937 52.9979 29H55.2659C55.2449 28.895 55.1399 28.286 55.1399 27.362V22.28C55.1399 20.243 53.9429 18.458 50.7929 18.458C48.2729 18.458 46.6769 20.033 46.4879 21.797L48.7139 22.301C48.8189 21.272 49.5329 20.453 50.8139 20.453C52.1579 20.453 52.7459 21.146 52.7459 22.007C52.7459 22.364 52.5779 22.658 51.9899 22.742L49.3649 23.141C47.6219 23.393 46.2779 24.401 46.2779 26.228ZM50.2049 27.404C49.2389 27.404 48.7139 26.774 48.7139 26.081C48.7139 25.241 49.3229 24.821 50.0789 24.695L52.7459 24.296V24.758C52.7459 26.753 51.5699 27.404 50.2049 27.404ZM60.4996 32.99V27.845C61.0246 28.622 62.1376 29.252 63.6076 29.252C66.5476 29.252 68.4166 26.942 68.4166 23.876C68.4166 20.852 66.7156 18.542 63.6916 18.542C62.1166 18.542 60.9406 19.277 60.4366 20.159V18.773H58.0846V32.99H60.4996ZM65.9806 23.876C65.9806 25.829 64.8466 27.089 63.2296 27.089C61.6336 27.089 60.4786 25.829 60.4786 23.876C60.4786 21.965 61.6336 20.705 63.2296 20.705C64.8676 20.705 65.9806 21.965 65.9806 23.876ZM72.4595 22.763C72.5435 21.671 73.4255 20.495 74.9585 20.495C76.6385 20.495 77.4365 21.566 77.4785 22.763H72.4595ZM77.7515 25.43C77.4155 26.438 76.6595 27.215 75.1895 27.215C73.6775 27.215 72.4595 26.102 72.3965 24.548H79.8725C79.8935 24.506 79.9355 24.17 79.9355 23.771C79.9355 20.537 78.0875 18.458 74.9375 18.458C72.3545 18.458 69.9605 20.6 69.9605 23.834C69.9605 27.299 72.4175 29.315 75.1895 29.315C77.6465 29.315 79.2635 27.866 79.8095 26.081L77.7515 25.43ZM83.9014 23.855C83.9014 21.902 85.0774 20.663 86.6734 20.663C88.2694 20.663 89.3614 21.881 89.3614 23.834C89.3614 25.787 88.2484 27.11 86.6524 27.11C84.9934 27.11 83.9014 25.808 83.9014 23.855ZM91.7134 13.796H89.3404V19.97C89.0254 19.319 88.1224 18.5 86.3374 18.5C83.4604 18.5 81.4654 20.915 81.4654 23.855C81.4654 26.942 83.4394 29.252 86.3794 29.252C87.8284 29.252 88.8994 28.538 89.3824 27.677C89.3824 28.097 89.4454 28.769 89.4874 29H91.8184C91.7974 28.832 91.7134 28.055 91.7134 27.131V13.796Z" fill="black"/>
<rect x="69.3329" y="13" width="12" height="3" fill="black"/>
</svg>
